<svg width="491" height="524" viewBox="0 0 491 524" fill="none" xmlns="http://www.w3.org/2000/svg">
<path d="M319.973 351.773C278.457 319.216 309.072 262.768 272.187 229.024C258.744 216.477 236.941 217.675 221.859 226.93C202.296 239.029 192.145 261.873 184.228 281.29C163.769 331.764 172.134 387.165 158.692 438.984C158.395 440.182 160.484 441.077 161.083 439.734C180.047 399.562 184.228 357.004 192.889 314.442C197.369 292.639 203.494 269.639 217.083 250.827C223.354 242.014 232.613 234.999 243.667 232.16C256.807 228.723 267.109 240.072 272.484 249.035C282.937 266.504 278.458 287.712 279.057 306.524C279.953 326.388 289.062 342.066 304.292 355.655C321.318 370.738 342.969 379.4 356.708 397.619C370.296 415.687 374.03 439.431 376.718 460.786C377.317 464.817 383.739 464.817 383.739 460.786C384.036 438.687 381.796 418.974 371.192 398.666C360.593 377.608 338.343 366.259 319.974 351.775L319.973 351.773Z" fill="black"/>
<path d="M281.147 374.173C262.928 364.616 271.438 337.736 271.141 321.309C270.694 307.721 269.949 293.533 265.022 280.241C261.141 269.788 252.928 259.039 239.334 262.32C223.506 266.054 216.036 286.065 212.454 298.612C206.777 318.32 208.271 339.377 208.126 359.388C208.126 388.211 196.178 419.268 183.636 445.404C182.886 446.899 184.975 447.946 185.871 446.602C198.865 427.039 215.292 408.966 223.355 387.018C230.375 368.502 228.136 348.491 227.985 329.226C227.985 316.533 224.553 283.83 240.974 277.257C245.303 275.616 250.235 297.267 251.131 301.298C257.85 329.371 245.605 361.777 267.709 385.074C282.641 400.605 310.121 401.501 323.412 418.527C335.808 434.21 334.912 455.861 346.407 471.839C347.303 473.032 349.542 472.584 349.542 470.943C349.693 451.979 345.808 428.381 335.657 411.807C323.11 391.193 302.204 385.223 281.146 374.171L281.147 374.173Z" fill="black"/>
<path d="M315.787 452.573C313.396 444.058 310.708 435.995 305.334 428.527C301.151 423.152 293.386 419.865 286.964 417.178C278.157 413.897 270.986 408.37 262.027 405.683C250.381 401.797 237.833 407.923 231.715 416.73C224.397 427.183 224.845 440.923 218.72 451.823C217.376 453.917 220.366 455.709 222.157 454.214C236.043 443.912 237.537 406.875 262.777 422.11C268.903 425.844 275.173 428.98 281.892 431.667C291.6 435.698 295.928 440.48 299.064 449.589C302.944 460.937 304.59 474.381 316.684 480.797C320.866 483.036 326.241 479.453 324.747 475.416C321.913 467.651 318.179 460.484 315.788 452.572L315.787 452.573Z" fill="black"/>
<path d="M260.68 429.733C247.836 425.999 242.164 437.348 239.773 446.16C238.278 452.28 233.799 466.764 239.476 471.843C240.82 473.035 242.612 472.738 243.805 471.843C247.539 468.858 247.836 461.39 249.18 457.207C250.372 453.774 253.81 442.868 257.69 448.248C261.424 453.477 263.815 459.899 267.398 465.275C272.325 472.889 280.388 478.712 286.513 485.436C289.497 488.572 294.43 485.733 294.575 482.301C295.023 469.608 285.169 460.65 279.341 449.598C275.018 441.083 271.132 432.869 260.679 429.734L260.68 429.733Z" fill="black"/>
<path d="M324.453 310.707C326.396 304.139 328.787 298.613 329.084 291.743C329.532 282.93 326.547 273.675 323.709 265.311C318.479 251.571 309.37 241.863 300.411 229.92C288.76 214.685 308.625 204.384 320.422 196.019C344.911 178.696 365.969 150.768 369.703 122.248C372.839 97.4613 353.125 78.644 326.245 88.0506C299.067 97.4621 279.802 126.431 269.646 149.873C262.182 167.196 257.849 181.384 237.094 188.103C222.011 193.035 209.318 198.561 197.37 208.415C171.537 229.769 164.37 263.816 157.349 293.237C152.869 311.601 149.286 329.972 148.536 348.789C147.791 370.737 149.583 393.435 146.151 415.243C146 415.54 146.599 415.691 146.599 415.388C157.5 379.399 161.833 342.216 169.744 305.628C176.614 275.019 182.885 240.967 208.271 218.123C220.666 207.071 236.344 205.43 251.131 199.306C266.511 193.035 274.125 181.983 280.1 167.946C286.074 153.462 292.345 140.467 301.751 127.628C310.12 116.274 329.829 94.3218 347.152 102.087C362.683 109.254 349.095 137.628 344.016 146.738C335.954 161.222 323.407 174.962 309.667 184.967C288.464 200.05 271.438 216.327 290.104 239.92C294.287 245.15 299.516 249.931 303.547 255.306C308.922 262.624 311.912 272.628 314 281.139C317.584 295.775 305.787 310.858 313.255 324.295C318.927 334.451 335.058 341.322 343.567 349.383C356.859 361.779 368.655 377.008 375.974 392.842C392.105 427.935 391.505 470.045 386.875 507.53C386.578 509.322 390.307 509.769 390.755 507.681C401.063 453.025 394.49 389.405 353.125 345.801C343.718 335.796 320.27 325.64 324.453 310.708L324.453 310.707Z" fill="black"/>
<path d="M293.84 186.467C304.142 184.826 309.523 172.879 313.851 165.409C321.319 152.42 334.012 143.159 338.044 128.524C339.091 124.941 335.955 121.206 331.919 121.206C322.513 121.508 313.851 130.618 309.82 139.425C308.477 140.623 307.133 142.118 305.789 143.758C301.607 148.987 301.159 156.003 298.023 161.68C294.888 167.648 290.409 173.029 287.57 178.997C285.331 183.33 289.065 187.211 293.841 186.466L293.84 186.467Z" fill="black"/>
<path d="M376.72 334.307C366.866 319.224 356.86 306.233 349.991 289.504C343.418 273.531 338.491 257.103 332.668 240.676C325.35 220.665 331.475 207.821 346.553 192.593C355.965 183.182 365.075 173.776 371.496 162.276C383.293 141.817 398.673 118.375 394.939 94.328C391.204 70.7346 362.532 53.4106 337.444 58.192C305.491 64.166 284.433 89.2546 268.455 113.145C259.194 127.036 250.236 140.921 239.335 153.765C227.387 168.099 212.605 178.703 197.075 189.604C164.965 211.557 144.361 237.839 135.996 274.276C125.84 319.677 135.548 365.219 133.908 410.916C133.908 412.26 136.298 412.557 136.595 411.213C143.168 376.12 141.824 341.177 144.064 305.786C146.152 270.693 156.46 238.437 184.085 213.198C195.132 202.745 208.273 194.98 220.372 185.725C233.96 175.423 245.012 163.474 255.314 150.48C276.517 123.449 290.112 90.4488 324.008 74.1728C342.377 65.3603 363.429 69.9906 377.617 82.9854C389.716 94.0323 387.622 111.803 383.44 125.543C375.529 152.272 348.945 173.329 330.58 194.236C321.768 204.09 315.497 214.543 316.392 227.539C317.288 242.919 326.845 259.049 332.22 273.383C337.449 288.019 342.824 302.055 350.288 315.795C358.653 331.477 371.496 345.211 382.543 359.253C399.715 381.951 401.657 410.327 401.657 437.056C401.657 465.129 400.163 493.056 400.017 520.983C400.017 523.519 404.345 524.118 404.798 521.582C410.621 489.322 415.699 456.618 409.423 424.06C403.6 394.196 393.892 360.446 376.72 334.311L376.72 334.307Z" fill="black"/>
<path d="M432.413 417.787C430.174 396.88 420.616 378.511 411.356 359.699C399.408 335.355 390.001 310.568 381.044 285.177C377.461 275.474 370.888 267.557 365.513 258.599C357.3 244.708 362.972 229.927 367.008 215.588C369.696 206.328 375.222 198.416 380.893 190.5C387.466 181.542 389.258 171.385 392.539 161.38C395.529 152.125 402.847 144.807 406.581 135.697C410.461 126.291 412.404 116.583 413.002 106.728C413.45 98.9624 414.049 90.1493 412.107 82.5346C410.164 74.3158 401.95 67.452 397.471 60.5813C388.059 45.9453 381.788 26.384 361.179 22.2013C357.897 21.4565 356.252 24.8888 358.194 27.1284C364.913 34.295 370.887 39.821 374.621 48.931C377.756 56.6966 381.194 64.1657 386.121 71.1817C391.194 78.4995 400.752 82.0828 403.892 90.7444C407.324 100.151 404.938 114.49 403.147 124.047C401.647 133.755 395.527 140.323 389.704 148.088C383.73 156.151 381.642 164.515 378.803 173.776C375.813 183.782 367.303 191.547 361.626 200.058C356.85 207.224 353.412 215.14 351.62 223.203C349.683 230.969 346.396 239.484 348.037 247.25C350.131 257.401 355.954 265.766 361.928 274.276C369.693 285.032 372.527 297.422 376.709 309.667C380.292 321.167 385.97 332.516 390.897 343.568C408.965 383.438 441.522 430.032 419.272 474.084C418.97 474.834 420.017 475.428 420.313 474.683C430.022 457.063 434.652 437.501 432.412 417.787L432.413 417.787Z" fill="black"/>
<path d="M425.253 331.613C420.774 322.207 418.983 312.051 416.295 302.045C413.904 292.191 411.659 282.185 408.524 272.327C406.133 264.858 400.462 258.291 395.983 251.717C384.186 234.993 400.462 211.103 407.483 194.827C416.295 174.217 425.852 154.207 434.961 133.9C449.888 100.597 432.269 76.5507 412.259 49.3733C411.212 48.0296 409.42 49.2275 410.019 50.5712C417.633 65.5032 426.743 80.2899 428.836 96.8633C431.222 116.129 418.232 134.795 409.867 151.817C401.653 168.843 394.039 186.311 386.575 203.786C380.299 218.869 371.044 235.447 377.163 251.723C379.554 257.994 384.184 263.369 388.216 268.598C394.039 276.212 396.726 284.129 399.413 292.937C404.492 310.259 411.21 327.134 419.872 343.41C428.831 359.989 433.013 379.399 437.643 397.322C443.617 418.973 435.851 441.077 431.518 462.281C430.627 466.166 436.45 467.51 437.794 463.926C444.663 446.306 448.992 428.536 448.544 409.869C447.945 391.65 440.33 372.686 435.106 355.062C432.867 346.849 428.836 339.38 425.252 331.614L425.253 331.613Z" fill="black"/>
<path d="M439.133 277.707C432.56 263.519 426.889 249.185 422.707 234.248C420.764 227.529 420.019 221.107 419.722 214.237C419.123 204.68 425.545 197.065 430.623 189.451C447.65 163.467 449.738 130.315 451.53 101.044C451.681 98.6533 447.947 98.8044 447.65 101.044C443.467 134.347 432.415 165.705 413.3 194.227C397.322 217.372 408.821 246.492 418.826 269.789C431.368 299.805 447.05 326.983 453.618 358.644C460.488 391.347 460.936 426.737 454.962 459.447C454.816 460.342 456.16 460.639 456.306 459.744C463.176 430.025 470.942 400.306 468.702 369.546C466.165 336.692 453.024 307.724 439.134 277.708L439.133 277.707Z" fill="black"/>
<path d="M459.293 268.747C456.903 260.085 454.814 252.023 451.231 243.809C447.194 233.955 442.418 226.039 447.049 215.585C453.767 200.653 461.387 187.512 458.101 170.935C457.804 169.742 455.861 169.888 455.564 170.935C452.877 179.893 449.293 187.659 444.366 195.575C440.179 202.741 432.861 209.163 430.768 217.08C426.591 232.309 435.846 247.84 442.716 261.429C451.528 279.2 458.096 297.721 464.669 316.388C471.091 334.752 478.257 354.019 479.305 373.429C479.456 376.414 483.784 376.117 484.086 373.429C485.727 356.705 479.904 342.069 474.529 326.539C468.253 307.872 464.221 287.861 459.294 268.747H459.293Z" fill="black"/>
<path d="M483.493 183.48C487.973 170.339 489.019 156.745 488.571 142.86C488.42 139.277 482.598 139.428 482.301 143.011C480.806 159.88 474.53 175.714 467.213 191.094C461.838 202.74 460.645 214.239 461.541 226.787C463.78 258.594 485.286 286.97 487.973 318.927C488.124 320.271 490.212 320.271 490.212 318.927C491.707 286.968 481.551 258 478.119 226.49C476.322 210.656 478.416 198.411 483.494 183.479L483.493 183.48Z" fill="black"/>
<path d="M119.72 331.92C119.72 308.925 121.512 285.477 127.038 262.931C129.725 251.728 133.907 240.676 139.579 230.373C144.809 220.665 153.022 214.843 161.533 207.676C169.449 201.103 174.97 193.04 181.991 185.873C189.908 177.811 199.465 171.389 209.022 164.967C226.194 153.019 239.934 139.279 252.178 123.149C265.47 105.676 277.266 87.7587 291.751 71.0294C298.772 62.8158 306.235 55.0507 315.497 49.076C325.351 42.6542 338.794 44.2948 348.799 37.1281C349.398 36.6802 349.544 35.3364 348.502 35.1855C328.196 32.498 306.09 37.5762 290.262 49.8215C272.336 63.7175 262.481 82.3841 250.533 100.452C237.096 120.759 221.861 138.832 201.402 153.316C193.189 158.993 185.272 164.816 177.657 171.237C168.845 178.852 162.725 188.56 154.36 196.325C121.953 226.044 112.548 267.856 110.308 308.774C108.964 331.919 107.172 356.263 113.443 378.961C120.167 402.549 109.115 428.087 107.027 451.685C106.282 459.154 119.87 460.644 121.063 453.326C124.349 434.362 128.677 415.545 128.677 396.279C128.677 386.873 125.542 378.061 122.255 369.102C118.375 357.904 119.865 343.566 119.719 331.92L119.72 331.92Z" fill="black"/>
<path d="M94.0267 308.467C94.0267 285.019 99.7037 258.737 107.318 236.488C111.053 225.29 116.277 214.237 122.25 203.633C127.927 194.076 140.021 187.956 149.428 181.831C166.75 170.482 175.564 151.367 193.334 140.617C212.298 129.268 231.413 118.367 241.865 99.1013C246.943 89.695 250.23 79.5386 255.157 70.132C259.938 60.8716 266.657 52.6586 273.225 44.444C280.397 35.6314 288.907 28.616 298.913 22.9386C308.47 17.5637 319.371 14.8761 328.929 9.79797C333.111 7.55837 329.976 2.6313 325.793 3.22503C307.424 6.06356 287.413 14.1313 272.929 25.329C263.372 32.7978 254.413 40.8597 246.648 49.969C238.731 59.3753 235.148 69.2344 230.372 79.985C225.742 90.735 221.856 99.845 213.497 108.657C205.133 117.022 193.039 125.084 182.585 131.354C173.325 136.729 166.304 145.39 159.288 152.86C151.22 161.672 141.965 168.24 131.657 174.51C90.444 199.453 82.8293 253.808 78.048 295.62C75.0636 320.86 78.9438 348.036 82.0792 373.276C83.7199 386.713 87.9021 398.964 87.6052 412.697C87.4541 423.447 86.1104 434.65 91.6364 444.656C92.2353 445.703 94.6208 445.552 94.7719 444.208C98.0583 422.254 99.2511 399.557 98.6521 377.306C98.0584 354.306 94.1781 331.462 94.027 308.462L94.0267 308.467Z" fill="black"/>
<path d="M67.8932 279.347C68.1901 261.425 72.0755 244.549 79.3932 227.825C82.6796 220.357 87.6068 213.789 91.1902 206.471C95.0704 198.554 97.461 190.195 102.091 182.575C111.195 168.241 133.747 162.715 147.185 152.564C161.971 141.361 171.529 128.069 182.278 113.881C193.179 99.548 200.799 83.4173 210.054 68.188C216.924 56.8391 227.674 36.828 241.861 32.6466C243.059 32.3498 242.611 30.8549 241.564 30.8549C229.168 29.9591 220.209 39.9642 213.49 48.0269C201.99 62.3656 192.73 77.0003 183.324 92.5269C172.871 110 158.684 123.887 142.854 137.33C127.772 150.173 107.313 157.788 94.6197 172.72C84.1666 184.965 79.9837 203.184 73.865 217.523C66.9901 233.648 61.615 249.034 59.5263 266.206C56.6878 288.008 58.9274 310.56 60.1253 332.362C61.469 354.763 62.9638 377.31 66.5472 399.559C67.1461 402.845 72.3701 402.991 72.5212 399.408C74.1618 359.387 67.443 319.517 67.8909 279.345L67.8932 279.347Z" fill="black"/>
<path d="M103.28 140.76C116.717 128.515 135.687 121.645 149.275 109.249C161.368 98.2024 165.253 81.9267 176.748 70.1293C181.977 64.3064 188.248 59.5252 193.92 54.1507C200.644 47.5777 205.42 39.5147 211.248 32.6453C223.045 18.9053 244.551 13.9787 260.675 6.06132C264.107 4.26959 261.57 -0.657474 257.836 0.38426C241.112 4.86866 224.685 10.0925 210.352 19.6496C203.482 24.2799 198.555 31.4465 193.477 37.5709C187.503 44.8887 180.337 50.5605 173.171 56.8363C159.728 68.6332 153.457 82.6696 143.597 96.8576C137.03 105.967 124.633 111.639 115.076 117.915C106.712 123.441 97.9041 128.368 90.4361 134.79C63.5561 157.04 51.3107 196.612 45.3374 228.123C37.5718 268.888 45.9364 307.716 47.1291 348.483C47.1291 350.124 49.9677 350.124 49.9677 348.483C50.2646 330.562 48.9208 312.942 48.775 295.171C48.6239 274.712 52.2072 255.15 57.4312 235.442C65.7958 203.035 76.6966 165.103 103.281 140.759L103.28 140.76Z" fill="black"/>
<path d="M86.4133 130.467C95.9706 118.967 109.111 112.696 120.611 102.988C130.767 94.3265 134.048 78.196 140.173 67.1493C147.642 53.712 157.793 41.1653 167.351 28.92C168.095 28.0242 166.455 26.5293 165.408 27.2793C153.611 35.3419 144.053 44.602 135.392 55.5033C126.283 67.3003 121.652 83.8727 110.157 93.878C105.079 98.5083 98.0583 101.644 92.2359 105.378C85.663 109.56 80.439 115.237 75.6573 120.909C64.7562 133.752 55.3506 147.493 45.3453 160.783C36.2359 173.028 27.4239 185.273 23.0946 199.757C18.9123 214.689 19.9591 230.669 21.0061 246.049C22.0529 263.221 22.9487 279.054 19.3654 296.075C16.0737 311.909 11.7457 327.586 11.1466 344.013C11.1466 345.804 13.9851 345.653 14.131 343.862C17.8654 313.398 29.959 285.023 31.303 254.112C31.9072 239.779 31.4593 224.847 33.8446 210.508C36.381 194.232 48.0326 180.644 58.0379 167.352C67.4494 154.956 76.5539 142.566 86.4126 130.467L86.4133 130.467Z" fill="black"/>
<path d="M37.88 147.493C48.333 130.02 67.1506 116.133 80.4426 100.305C93.5833 84.472 106.724 70.284 124.349 58.6387C128.828 55.6543 125.99 47.7376 120.167 49.8261C99.407 57.5917 85.9697 72.0768 72.3803 87.9088C58.0417 104.783 40.4217 119.565 27.1297 137.19C13.3897 155.258 3.38435 178.253 1.14568 200.357C-1.39072 226.039 4.13528 251.425 5.47901 276.961C5.47901 278.305 7.42169 278.154 7.56756 276.961C9.95822 255.606 7.11964 234.253 8.76026 212.898C10.2551 188.857 25.3389 167.95 37.8803 147.491L37.88 147.493Z" fill="black"/>
</svg>
